<?xml version="1.0" encoding="utf-8"?>
<svg width="103" height="26" viewBox="0 0 103 26" fill="none" xmlns="http://www.w3.org/2000/svg">
<path d="M58.1248 8.67946C58.1248 5.7051 58.176 2.93587 58.3299 0.371765L50.4837 1.85894V2.57689L51.253 2.67946C51.8171 2.73074 52.176 2.93587 52.3812 3.24356C52.5863 3.60253 52.7402 4.11535 52.8427 4.88458C52.9453 6.37176 53.0478 9.75638 52.9966 15.0897C52.9966 20.3718 52.9453 23.7051 52.8427 24.9871C55.6632 25.6025 57.8684 25.8589 59.5094 25.8589C62.5863 25.8589 64.9966 24.9871 66.7402 23.1923C68.4837 21.4487 69.4068 18.9871 69.4068 15.9615C69.4068 13.5513 68.7401 11.5513 67.4068 9.96151C66.0735 8.37176 64.3812 7.60253 62.3812 7.60253C61.0478 7.60253 59.6632 7.96151 58.1248 8.67946ZM58.2786 24.4743C58.176 22.8333 58.0735 17.9102 58.0735 9.85894C58.535 9.7051 59.1504 9.60253 59.9196 9.60253C61.1504 9.60253 62.1248 10.2179 62.8427 11.5C63.5607 12.782 63.9196 14.3205 63.9196 16.2692C63.9196 18.6795 63.5094 20.6282 62.6889 22.2692C61.8684 23.8589 60.8427 24.6795 59.5607 24.6795C59.1504 24.5769 58.7402 24.5256 58.2786 24.4743ZM21.0479 0.884586H0.535034V1.91023L1.61196 2.01279C2.43247 2.16664 2.99657 2.47433 3.35555 2.93587C3.71452 3.44869 3.91965 4.2692 3.97093 5.39741C4.38119 10.9359 4.38119 16.1154 3.97093 20.8846C3.86837 22.0128 3.66324 22.8333 3.35555 23.3461C2.99657 23.8589 2.43247 24.1666 1.61196 24.2692L0.535034 24.423V25.4487H13.7658V24.423L12.3812 24.3205C11.5607 24.2179 10.9966 23.8589 10.6376 23.3974C10.2786 22.8846 10.0735 22.0641 10.0222 20.9359C9.86837 18.8846 9.7658 16.5256 9.7658 13.9102L12.535 13.9615C14.0222 14.0128 15.0479 15.141 15.5607 17.3974H16.5863V9.03843H15.5607C15.0479 11.2436 14.0735 12.3718 12.535 12.423L9.7658 12.4743C9.7658 7.85894 9.86837 4.57689 10.0222 2.57689H14.0735C16.9453 2.57689 18.894 4.42305 20.0222 8.11535L21.253 7.75638L21.0479 0.884586ZM18.6376 16.6795C18.6376 19.3461 19.4068 21.5512 20.894 23.2948C22.3812 25.0384 24.5863 25.8589 27.3555 25.8589C30.1248 25.8589 32.3812 24.9871 34.0222 23.1923C35.6632 21.4487 36.4325 19.2436 36.4325 16.5769C36.4325 13.9102 35.6632 11.7051 34.1761 9.96151C32.6889 8.21792 30.4837 7.3974 27.7145 7.3974C24.9453 7.3974 22.6889 8.2692 21.0479 10.0641C19.4068 11.8077 18.6376 14.0128 18.6376 16.6795ZM30.0735 10.8333C30.6889 12.3205 30.9453 14.2692 30.9453 16.6282C30.9453 22.0641 29.8171 24.7307 27.612 24.7307C26.4837 24.7307 25.612 23.9615 24.9966 22.423C24.3812 20.8846 24.1248 18.9359 24.1248 16.6282C24.1248 11.2436 25.253 8.57689 27.4581 8.57689C28.5863 8.52561 29.4581 9.29484 30.0735 10.8333ZM73.4068 23.2948C75.0991 24.9871 77.253 25.8589 79.8171 25.8589C81.4068 25.8589 82.7914 25.5512 84.0222 24.8846C85.253 24.2692 86.2273 23.5 86.894 22.5769L86.3812 21.9615C85.253 22.8333 83.9709 23.2436 82.4837 23.2436C80.4325 23.2436 78.8427 22.5769 77.7658 21.1923C76.6376 19.8077 76.1248 18.0641 76.2273 15.8077H87.2017C87.2017 13.3461 86.5863 11.3461 85.3043 9.75638C84.0222 8.21792 82.2273 7.44869 79.9196 7.44869C77.0478 7.44869 74.8427 8.37176 73.253 10.1666C71.6632 11.9615 70.894 14.1666 70.894 16.782C70.894 19.4487 71.7145 21.6025 73.4068 23.2948ZM77.2017 10.423C77.7658 9.19228 78.4837 8.57689 79.4581 8.57689C80.9966 8.57689 81.7658 10.5256 81.7658 14.4743L76.3299 14.5769C76.3812 13.0384 76.6376 11.6538 77.2017 10.423ZM100.997 8.37176C99.6119 7.75638 97.8683 7.3974 95.7658 7.3974C93.6119 7.3974 91.9196 7.96151 90.6376 9.03843C89.3555 10.1154 88.6889 11.4487 88.6889 13.0384C88.6889 14.423 89.0991 15.5 89.8684 16.2692C90.6376 17.0384 91.8683 17.7051 93.4581 18.2692C94.894 18.782 95.9196 19.2948 96.4325 19.7564C96.9453 20.2692 97.253 20.8333 97.253 21.6025C97.253 22.3205 96.9966 22.9871 96.4325 23.5C95.9196 24.0641 95.2017 24.3205 94.2786 24.3205C92.0222 24.3205 90.3299 22.6795 89.1504 19.3974L88.2786 19.6538L88.4837 24.782C90.3299 25.5 92.3812 25.8589 94.6376 25.8589C96.9966 25.8589 98.7914 25.3461 100.125 24.2692C101.458 23.2436 102.125 21.7564 102.125 19.9102C102.125 18.6795 101.817 17.6538 101.15 16.8846C100.484 16.1154 99.4068 15.4487 97.8684 14.8333C96.176 14.2179 94.9966 13.6538 94.3812 13.141C93.7658 12.6282 93.4581 12.0128 93.4581 11.2436C93.4581 10.4743 93.6632 9.85894 94.1248 9.34612C94.5863 8.8333 95.1504 8.62817 95.8683 8.62817C97.9196 8.62817 99.4068 10.1154 100.33 13.0384L101.202 12.782L100.997 8.37176ZM51.6632 7.91023C50.9453 7.55125 50.1761 7.3974 49.3043 7.3974C48.4325 7.3974 47.5607 7.75638 46.5863 8.47433C45.612 9.19228 44.894 10.1666 44.3299 11.5L44.3812 7.3974L36.5863 8.93587V9.65381L37.3555 9.7051C38.3299 9.80766 38.894 10.5769 38.9966 11.9615C39.3043 15.141 39.3043 18.5256 38.9966 22.1154C38.894 23.5 38.3299 24.2179 37.3555 24.3718L36.5863 24.4743V25.4487H47.4581V24.4743L46.0735 24.3718C45.0991 24.2692 44.535 23.5 44.4325 22.1154C44.1248 19.141 44.0735 15.9615 44.3299 12.6795C44.6376 12.1666 45.3043 11.8589 46.3299 11.7564C47.3555 11.6538 48.535 11.9615 49.7658 12.6795L51.6632 7.91023Z" fill="white"/>
</svg>
